<mxfile host="app.diagrams.net" modified="2024-05-06T05:26:07.443Z" agent="Mozilla/5.0 (Windows NT 10.0; Win64; x64) AppleWebKit/537.36 (KHTML, like Gecko) Chrome/124.0.0.0 Safari/537.36" etag="0zlHKNqhOpkuy_8Vz0ya" version="24.3.1" type="device">
  <diagram name="Page-1" id="1hy__Dd0-e1NS565zDUD">
    <mxGraphModel dx="1417" dy="765" grid="1" gridSize="10" guides="1" tooltips="1" connect="1" arrows="1" fold="1" page="1" pageScale="1" pageWidth="1600" pageHeight="900" math="0" shadow="0">
      <root>
        <mxCell id="0" />
        <mxCell id="1" parent="0" />
        <mxCell id="W_i-G88K8iBqpsEjodR4-6" style="edgeStyle=orthogonalEdgeStyle;rounded=0;orthogonalLoop=1;jettySize=auto;html=1;exitX=0.25;exitY=0;exitDx=0;exitDy=0;entryX=0.41;entryY=1.013;entryDx=0;entryDy=0;entryPerimeter=0;" parent="1" source="sGJ7WwSpqgLuRG3EIWSH-1" target="tQmJIAEFOMGreabGvIb--9" edge="1">
          <mxGeometry relative="1" as="geometry">
            <mxPoint x="190.48000000000002" y="271.1600000000001" as="targetPoint" />
          </mxGeometry>
        </mxCell>
        <mxCell id="tQmJIAEFOMGreabGvIb--3" style="edgeStyle=orthogonalEdgeStyle;rounded=0;orthogonalLoop=1;jettySize=auto;html=1;exitX=0.5;exitY=1;exitDx=0;exitDy=0;entryX=0.5;entryY=0;entryDx=0;entryDy=0;" edge="1" parent="1" source="sGJ7WwSpqgLuRG3EIWSH-1" target="tQmJIAEFOMGreabGvIb--2">
          <mxGeometry relative="1" as="geometry" />
        </mxCell>
        <mxCell id="sGJ7WwSpqgLuRG3EIWSH-1" value="&lt;b&gt;USER&lt;/b&gt;" style="rounded=0;whiteSpace=wrap;html=1;" parent="1" vertex="1">
          <mxGeometry x="160" y="345" width="120" height="60" as="geometry" />
        </mxCell>
        <mxCell id="sGJ7WwSpqgLuRG3EIWSH-3" value="SPOTIFY API" style="rounded=0;whiteSpace=wrap;html=1;" parent="1" vertex="1">
          <mxGeometry x="450" y="350" width="120" height="60" as="geometry" />
        </mxCell>
        <mxCell id="sGJ7WwSpqgLuRG3EIWSH-5" value="" style="endArrow=classic;html=1;rounded=0;exitX=1;exitY=0.5;exitDx=0;exitDy=0;entryX=0;entryY=0.5;entryDx=0;entryDy=0;" parent="1" edge="1" source="sGJ7WwSpqgLuRG3EIWSH-1">
          <mxGeometry width="50" height="50" relative="1" as="geometry">
            <mxPoint x="750" y="374.5" as="sourcePoint" />
            <mxPoint x="450" y="375" as="targetPoint" />
          </mxGeometry>
        </mxCell>
        <mxCell id="sGJ7WwSpqgLuRG3EIWSH-9" value="Song Name" style="text;html=1;align=center;verticalAlign=middle;resizable=0;points=[];autosize=1;strokeColor=none;fillColor=none;" parent="1" vertex="1">
          <mxGeometry x="320" y="345" width="90" height="30" as="geometry" />
        </mxCell>
        <mxCell id="I_KX02j4BUqoLgpviZJS-4" style="edgeStyle=orthogonalEdgeStyle;rounded=0;orthogonalLoop=1;jettySize=auto;html=1;entryX=-0.037;entryY=0.428;entryDx=0;entryDy=0;entryPerimeter=0;exitX=1;exitY=0.25;exitDx=0;exitDy=0;" parent="1" edge="1" target="YfHNPUYCUHNgzpv_P_jk-1" source="tQmJIAEFOMGreabGvIb--9">
          <mxGeometry relative="1" as="geometry">
            <mxPoint x="255" y="230" as="sourcePoint" />
            <mxPoint x="335" y="230" as="targetPoint" />
          </mxGeometry>
        </mxCell>
        <mxCell id="I_KX02j4BUqoLgpviZJS-5" style="edgeStyle=orthogonalEdgeStyle;rounded=0;orthogonalLoop=1;jettySize=auto;html=1;exitX=0.02;exitY=0.768;exitDx=0;exitDy=0;exitPerimeter=0;entryX=1.009;entryY=0.683;entryDx=0;entryDy=0;entryPerimeter=0;" parent="1" edge="1" target="tQmJIAEFOMGreabGvIb--9" source="YfHNPUYCUHNgzpv_P_jk-1">
          <mxGeometry relative="1" as="geometry">
            <mxPoint x="335" y="247" as="sourcePoint" />
            <mxPoint x="260" y="247" as="targetPoint" />
          </mxGeometry>
        </mxCell>
        <mxCell id="I_KX02j4BUqoLgpviZJS-7" value="Login &lt;br&gt;Sucess / Failure" style="text;html=1;align=center;verticalAlign=middle;resizable=0;points=[];autosize=1;strokeColor=none;fillColor=none;fontStyle=0" parent="1" vertex="1">
          <mxGeometry x="250" y="285" width="110" height="40" as="geometry" />
        </mxCell>
        <mxCell id="I_KX02j4BUqoLgpviZJS-9" value="&amp;nbsp;User &lt;br&gt;Credentials" style="text;html=1;align=center;verticalAlign=middle;resizable=0;points=[];autosize=1;strokeColor=none;fillColor=none;fontStyle=0" parent="1" vertex="1">
          <mxGeometry x="110" y="280" width="80" height="40" as="geometry" />
        </mxCell>
        <mxCell id="I_KX02j4BUqoLgpviZJS-10" value="Check User &lt;br&gt;Credentials" style="text;html=1;align=center;verticalAlign=middle;resizable=0;points=[];autosize=1;strokeColor=none;fillColor=none;fontStyle=0" parent="1" vertex="1">
          <mxGeometry x="360" y="190" width="90" height="40" as="geometry" />
        </mxCell>
        <mxCell id="I_KX02j4BUqoLgpviZJS-11" value="User Details" style="text;html=1;align=center;verticalAlign=middle;resizable=0;points=[];autosize=1;strokeColor=none;fillColor=none;fontStyle=0" parent="1" vertex="1">
          <mxGeometry x="370" y="260" width="90" height="30" as="geometry" />
        </mxCell>
        <mxCell id="W_i-G88K8iBqpsEjodR4-4" style="edgeStyle=orthogonalEdgeStyle;rounded=0;orthogonalLoop=1;jettySize=auto;html=1;entryX=0.25;entryY=0;entryDx=0;entryDy=0;" parent="1" target="W_i-G88K8iBqpsEjodR4-1" edge="1">
          <mxGeometry relative="1" as="geometry">
            <mxPoint x="280" y="572" as="targetPoint" />
            <mxPoint x="190" y="615" as="sourcePoint" />
          </mxGeometry>
        </mxCell>
        <mxCell id="I_KX02j4BUqoLgpviZJS-16" value="Song&lt;div&gt;Attributes&lt;/div&gt;" style="text;html=1;align=center;verticalAlign=middle;resizable=0;points=[];autosize=1;strokeColor=none;fillColor=none;" parent="1" vertex="1">
          <mxGeometry x="110" y="675" width="70" height="40" as="geometry" />
        </mxCell>
        <mxCell id="c9Jh6X77SNhoX08Sjqh1-2" value="Upload&amp;nbsp;&lt;div&gt;Audio File&lt;/div&gt;" style="text;html=1;align=center;verticalAlign=middle;resizable=0;points=[];autosize=1;strokeColor=none;fillColor=none;" parent="1" vertex="1">
          <mxGeometry x="130" y="450" width="80" height="40" as="geometry" />
        </mxCell>
        <mxCell id="YfHNPUYCUHNgzpv_P_jk-1" value="DB" style="shape=cylinder3;whiteSpace=wrap;html=1;boundedLbl=1;backgroundOutline=1;size=15;" parent="1" vertex="1">
          <mxGeometry x="470" y="200" width="60" height="80" as="geometry" />
        </mxCell>
        <mxCell id="YfHNPUYCUHNgzpv_P_jk-3" value="Retrieve&amp;nbsp;&lt;div&gt;Prediction&lt;/div&gt;" style="text;html=1;align=center;verticalAlign=middle;resizable=0;points=[];autosize=1;strokeColor=none;fillColor=none;" parent="1" vertex="1">
          <mxGeometry x="270" y="680" width="80" height="40" as="geometry" />
        </mxCell>
        <mxCell id="21bC2JXqBF95PvTOkzl0-2" value="High Level &lt;br&gt;Audio Features" style="text;html=1;align=center;verticalAlign=middle;resizable=0;points=[];autosize=1;strokeColor=none;fillColor=none;" parent="1" vertex="1">
          <mxGeometry x="410" y="450" width="100" height="40" as="geometry" />
        </mxCell>
        <mxCell id="21bC2JXqBF95PvTOkzl0-6" value="High Level Model &lt;br&gt;pkl file" style="rounded=0;whiteSpace=wrap;html=1;" parent="1" vertex="1">
          <mxGeometry x="460" y="770" width="120" height="60" as="geometry" />
        </mxCell>
        <mxCell id="21bC2JXqBF95PvTOkzl0-8" value="Song&lt;div&gt;&amp;nbsp;Attributes&lt;/div&gt;" style="text;html=1;align=center;verticalAlign=middle;resizable=0;points=[];autosize=1;strokeColor=none;fillColor=none;rotation=0;flipV=1;" parent="1" vertex="1">
          <mxGeometry x="410" y="675" width="80" height="40" as="geometry" />
        </mxCell>
        <mxCell id="21bC2JXqBF95PvTOkzl0-10" value="Retrieve&lt;div&gt;&amp;nbsp;Prediction&lt;/div&gt;" style="text;html=1;align=center;verticalAlign=middle;resizable=0;points=[];autosize=1;strokeColor=none;fillColor=none;rotation=0;flipV=0;flipH=1;" parent="1" vertex="1">
          <mxGeometry x="580" y="675" width="80" height="40" as="geometry" />
        </mxCell>
        <mxCell id="W_i-G88K8iBqpsEjodR4-5" style="edgeStyle=orthogonalEdgeStyle;rounded=0;orthogonalLoop=1;jettySize=auto;html=1;exitX=0.75;exitY=0;exitDx=0;exitDy=0;" parent="1" source="W_i-G88K8iBqpsEjodR4-1" edge="1">
          <mxGeometry relative="1" as="geometry">
            <mxPoint x="250" y="615" as="targetPoint" />
          </mxGeometry>
        </mxCell>
        <mxCell id="W_i-G88K8iBqpsEjodR4-1" value="Low Level Model &lt;br&gt;pkl file" style="rounded=0;whiteSpace=wrap;html=1;" parent="1" vertex="1">
          <mxGeometry x="160" y="770" width="120" height="60" as="geometry" />
        </mxCell>
        <mxCell id="W_i-G88K8iBqpsEjodR4-7" style="edgeStyle=orthogonalEdgeStyle;rounded=0;orthogonalLoop=1;jettySize=auto;html=1;exitX=1;exitY=1;exitDx=0;exitDy=0;entryX=0.733;entryY=-0.014;entryDx=0;entryDy=0;entryPerimeter=0;" parent="1" target="sGJ7WwSpqgLuRG3EIWSH-1" edge="1">
          <mxGeometry relative="1" as="geometry">
            <mxPoint x="248.2842712474619" y="273.2842712474619" as="sourcePoint" />
          </mxGeometry>
        </mxCell>
        <mxCell id="W_i-G88K8iBqpsEjodR4-11" style="edgeStyle=orthogonalEdgeStyle;rounded=0;orthogonalLoop=1;jettySize=auto;html=1;entryX=0.418;entryY=-0.02;entryDx=0;entryDy=0;exitX=0.5;exitY=1;exitDx=0;exitDy=0;entryPerimeter=0;" parent="1" source="sGJ7WwSpqgLuRG3EIWSH-3" target="tQmJIAEFOMGreabGvIb--6" edge="1">
          <mxGeometry relative="1" as="geometry">
            <mxPoint x="533.04" y="577.1199999999999" as="targetPoint" />
            <mxPoint x="550" y="440" as="sourcePoint" />
          </mxGeometry>
        </mxCell>
        <mxCell id="tQmJIAEFOMGreabGvIb--2" value="Low Level Extraction" style="rounded=0;whiteSpace=wrap;html=1;" vertex="1" parent="1">
          <mxGeometry x="160" y="555" width="120" height="60" as="geometry" />
        </mxCell>
        <mxCell id="tQmJIAEFOMGreabGvIb--7" style="edgeStyle=orthogonalEdgeStyle;rounded=0;orthogonalLoop=1;jettySize=auto;html=1;exitX=0.25;exitY=1;exitDx=0;exitDy=0;entryX=0.25;entryY=0;entryDx=0;entryDy=0;" edge="1" parent="1" source="tQmJIAEFOMGreabGvIb--6" target="21bC2JXqBF95PvTOkzl0-6">
          <mxGeometry relative="1" as="geometry" />
        </mxCell>
        <mxCell id="tQmJIAEFOMGreabGvIb--8" style="edgeStyle=orthogonalEdgeStyle;rounded=0;orthogonalLoop=1;jettySize=auto;html=1;exitX=0.75;exitY=1;exitDx=0;exitDy=0;entryX=0.75;entryY=0;entryDx=0;entryDy=0;" edge="1" parent="1" source="tQmJIAEFOMGreabGvIb--6" target="21bC2JXqBF95PvTOkzl0-6">
          <mxGeometry relative="1" as="geometry" />
        </mxCell>
        <mxCell id="tQmJIAEFOMGreabGvIb--6" value="High Level Extraction" style="rounded=0;whiteSpace=wrap;html=1;" vertex="1" parent="1">
          <mxGeometry x="460" y="580" width="120" height="60" as="geometry" />
        </mxCell>
        <mxCell id="tQmJIAEFOMGreabGvIb--9" value="Login" style="rounded=0;whiteSpace=wrap;html=1;" vertex="1" parent="1">
          <mxGeometry x="140" y="220" width="120" height="60" as="geometry" />
        </mxCell>
      </root>
    </mxGraphModel>
  </diagram>
</mxfile>
